<svg xmlns="http://www.w3.org/2000/svg" version="1.1" xmlns:xlink="http://www.w3.org/1999/xlink" width="512" height="512" x="0" y="0" viewBox="0 0 512 512" style="enable-background:new 0 0 512 512" xml:space="preserve" class=""><g><path fill-rule="evenodd" d="M199.788 259.291h112.423c7.015 0 11.553 2.455 17.172 5.834l81.833 50.959c11.679 7.272 16.665 21.549 12.865 34.234l-32.66 109.017c-4.019 13.417-19.18 23.352-31.707 17.088h-.001c-12.527-6.264-21.108-18.288-17.088-31.707l27.648-92.283-29.715-19.399v138.118c0 15.591-12.758 28.348-28.347 28.348H199.788c-15.589 0-28.347-12.756-28.347-28.348V333.034l-29.715 19.399 27.647 92.283c4.02 13.419-3.671 27.687-17.088 31.707h-.001c-13.417 4.02-27.687-3.671-31.707-17.088l-32.66-109.017c-3.801-12.686 1.186-26.961 12.865-34.234l81.833-50.959c5.621-3.379 10.159-5.834 17.173-5.834zM249 19.5a7 7 0 1 1 14 0v54.788a7 7 0 1 1-14 0zM138.093 71.238a7 7 0 0 1 9.898-9.898l38.741 38.741a7 7 0 0 1-9.898 9.898zM96.254 186.246a7 7 0 1 1 0-14h54.788a7 7 0 1 1 0 14zm319.492-14a7 7 0 1 1 0 14h-54.788a7 7 0 1 1 0-14zM364.008 61.34a7 7 0 0 1 9.898 9.898l-38.741 38.741a7 7 0 0 1-9.898-9.898zM256 128.104c28.245 0 51.142 22.897 51.142 51.142S284.245 230.388 256 230.388s-51.142-22.897-51.142-51.142 22.897-51.142 51.142-51.142zm0 169.662-14.577 37.016-39.709 2.425 30.7 25.302-9.965 38.515L256 379.645l33.551 21.379-9.965-38.515 30.7-25.302-39.709-2.425z" clip-rule="evenodd" fill="#ff9e00" opacity="1" data-original="#000000" class=""></path></g></svg>