<svg xmlns="http://www.w3.org/2000/svg" version="1.1" xmlns:xlink="http://www.w3.org/1999/xlink" width="512" height="512" x="0" y="0" viewBox="0 0 176 176" style="enable-background:new 0 0 512 512" xml:space="preserve" class=""><g><g data-name="Layer 2"><g data-name="31.N_30"><path d="M88 0A88 88 0 0 0 0 88a88 88 0 0 0 88 88 88 88 0 0 0 88-88A88 88 0 0 0 88 0zm-9.29 115.75q-6.6 5.15-17.32 5.14a28.49 28.49 0 0 1-11.67-2.39 18.3 18.3 0 0 1-8.15-6.64 17.27 17.27 0 0 1-2.77-9.64h14.9a6.65 6.65 0 0 0 2.37 5.09 8.38 8.38 0 0 0 5.85 2.16 8.77 8.77 0 0 0 6.24-2.18 7.28 7.28 0 0 0 2.33-5.56q0-4.83-2.42-6.85a10.09 10.09 0 0 0-6.68-2h-7.21v-11h7q8.31 0 8.31-8.13a7.05 7.05 0 0 0-2-5.17 7.51 7.51 0 0 0-5.58-2 8 8 0 0 0-5.12 1.72 5.22 5.22 0 0 0-2.18 4.26h-14.8a15.14 15.14 0 0 1 2.82-9 18.48 18.48 0 0 1 7.8-6.17 26.64 26.64 0 0 1 11-2.22q10.68 0 16.79 4.87t6.11 13.41a13.57 13.57 0 0 1-2.53 7.8 18.07 18.07 0 0 1-7.36 6 17.2 17.2 0 0 1 8 5.61A14.76 14.76 0 0 1 85.3 102a16.53 16.53 0 0 1-6.59 13.75zm58.49-21.88q0 13-5.83 20t-16.41 7q-10.68 0-16.52-7.07t-5.85-19.93V82.18q0-13 5.83-20t16.45-7q10.63 0 16.48 7.08t5.85 20z" fill="#ffffff" opacity="1" data-original="#000000" class=""></path><path d="M114.87 66.58a5.88 5.88 0 0 0-5.56 3.16c-1.15 2.11-1.78 5.3-1.86 9.58v16.35q0 7.15 1.8 10.48a6 6 0 0 0 5.71 3.32 6 6 0 0 0 5.58-3.23c1.2-2.16 1.82-5.53 1.85-10.13V80.29q0-6.9-1.8-10.31a6 6 0 0 0-5.72-3.4z" fill="#ffffff" opacity="1" data-original="#000000" class=""></path></g></g></g></svg>