<svg xmlns="http://www.w3.org/2000/svg" version="1.1" xmlns:xlink="http://www.w3.org/1999/xlink" width="512" height="512" x="0" y="0" viewBox="0 0 205.759 205.759" style="enable-background:new 0 0 512 512" xml:space="preserve" class=""><g><path d="M37.872 113.44c.204.013.405.024.609.024 4.028 0 7.447-3.105 7.764-7.19l2.213-28.547 14.958-10.78v41.409c0 2.082.563 4.025 1.464 5.742l-16.791 69.574c-1.209 5.029 1.878 10.078 6.896 11.289.743.177 1.48.256 2.208.256 4.223 0 8.05-2.874 9.085-7.154l16-66.305 18.182 8.671-1.525 24.612c-.32 5.151 3.595 9.597 8.753 9.913a9.359 9.359 0 0 0 9.919-8.756l1.924-30.914a9.348 9.348 0 0 0-5.315-9.018l-25.852-12.325V76.568l9.042 10.793a7.794 7.794 0 0 0 5.093 2.74l27.493 3.118a7.795 7.795 0 0 0 8.622-6.865c.487-4.278-2.594-8.139-6.869-8.626l-24.393-2.761-19.875-23.721a12.472 12.472 0 0 0-2.561-4.025c-1.042-4.031-4.67-7.021-9.024-7.021a9.338 9.338 0 0 0-7.77 4.144L36.417 67.197a7.794 7.794 0 0 0-3.209 5.717l-2.497 32.147a7.781 7.781 0 0 0 7.161 8.379z" fill="#ffffff" opacity="1" data-original="#000000" class=""></path><circle cx="84.024" cy="19.354" r="19.354" fill="#ffffff" opacity="1" data-original="#000000" class=""></circle><path d="m175.179 105.269-22.963 7.168 5.286 5.285-25.105 20.137a3.112 3.112 0 0 0-1.163 2.43v28.059h-47.21a3.118 3.118 0 0 0-3.118 3.117v28.06H33.697a3.118 3.118 0 1 0 0 6.235h50.327a3.119 3.119 0 0 0 3.118-3.118v-28.059h47.209a3.12 3.12 0 0 0 3.118-3.118v-29.678l24.472-19.632 6.071 6.071 7.167-22.957z" fill="#ffffff" opacity="1" data-original="#000000" class=""></path></g></svg>