<svg xmlns="http://www.w3.org/2000/svg" version="1.1" xmlns:xlink="http://www.w3.org/1999/xlink" width="512" height="512" x="0" y="0" viewBox="0 0 510 510" style="enable-background:new 0 0 512 512" xml:space="preserve" fill-rule="evenodd" class=""><g><path d="M428.706 70.745c5.707-2.537 11.92-3.931 18.418-3.931 27.822 0 50.409 25.54 50.409 56.999 0 31.458-22.587 56.998-50.409 56.998-9.178 0-17.788-2.78-25.204-7.635-7.416 4.855-16.026 7.635-25.205 7.635-27.821 0-50.409-25.54-50.409-56.998 0-31.459 22.588-56.999 50.409-56.999a45.08 45.08 0 0 1 16.606 3.17c-2.383-6.985-2.462-13.134-1.293-18.919-31.656 13.739-52.928 6.162-64.097-22.153a4.98 4.98 0 0 1 2.127-6.132c26.166-15.234 47.473-8.165 63.786 21.823 1.333-3.784 3.057-7.481 4.84-11.24a7.003 7.003 0 0 1 9.324-3.325 7.004 7.004 0 0 1 3.325 9.325c-4.344 9.156-9.135 17.723-3.123 30.029.215.442.38.895.496 1.353zM37.768 222.782a58.796 58.796 0 0 1-.672-8.785c0-23.125 21.029-41.902 46.949-41.902 20.563 0 32.12 8.041 42.568 24.112.988 1.53 2.562 2.384 4.393 2.384 1.819 0 3.393-.854 4.392-2.384 10.437-16.071 21.994-24.112 42.557-24.112 25.92 0 46.949 18.777 46.949 41.902 0 2.928-.23 5.857-.672 8.785h-40.161l-6.88-7.063a21.001 21.001 0 0 0-31.833 2.043l-.889-2.222a21 21 0 0 0-38.882-.277l-4.503 10.806a20.986 20.986 0 0 0-11.281-3.287zm167.239 42c-17.294 23.93-43.716 47.859-70.519 71.784a5.211 5.211 0 0 1-6.976 0c-26.803-23.925-53.225-47.854-70.519-71.784h20.31l9.112 16.8a21 21 0 0 0 37.845-1.935l.962-2.31a21.002 21.002 0 0 0 33.543-2.531l7.618-11.97a21.004 21.004 0 0 0 8.828 1.946zm-185.54-14c-3.864 0-7-3.137-7-7 0-3.864 3.136-7 7-7h70.336a6.998 6.998 0 0 1 6.153 3.662l8.09 14.916 14.464-34.713a7 7 0 0 1 12.961.093l11.004 27.511 13.768-21.636a7.003 7.003 0 0 1 10.92-1.126l11.002 11.293h64.368c3.864 0 7 3.136 7 7 0 3.863-3.136 7-7 7h-67.322a7 7 0 0 1-5.014-2.116l-6.891-7.073-16.352 25.697a7 7 0 0 1-12.405-1.158l-9.71-24.275-13.502 32.406a7.002 7.002 0 0 1-12.615.645l-13.086-24.126zM153.772 74.143h-47.477V55.857h47.477zM78.533 15c7.601 0 13.762 6.297 13.762 14.066v71.868c0 7.769-6.161 14.066-13.762 14.066-7.6 0-13.761-6.297-13.761-14.066V29.066C64.772 21.297 70.933 15 78.533 15zM44.132 27.375c5.719 0 10.356 4.738 10.356 10.584v54.082c0 5.846-4.637 10.584-10.356 10.584s-10.356-4.738-10.356-10.584V37.959c0-5.846 4.637-10.584 10.356-10.584zM181.533 15c7.601 0 13.762 6.297 13.762 14.066v71.868c0 7.769-6.161 14.066-13.762 14.066-7.6 0-13.761-6.297-13.761-14.066V29.066c0-7.769 6.161-14.066 13.761-14.066zm34.402 12.375c5.719 0 10.356 4.738 10.356 10.584v54.082c0 5.846-4.637 10.584-10.356 10.584s-10.356-4.738-10.356-10.584V37.959c0-5.846 4.637-10.584 10.356-10.584zm56.154 218.377c0-29.685 24.067-53.752 53.77-53.752 29.686 0 53.752 24.067 53.752 53.752 0 29.703-24.066 53.77-53.752 53.77-29.703 0-53.77-24.067-53.77-53.77zm170.078 201.07c0 64.237-232.634 64.237-232.634 0 0-64.238 52.088-116.326 116.326-116.326s116.308 52.088 116.308 116.326z" fill="#ffffff" opacity="1" data-original="#000000" class=""></path></g></svg>