<svg xmlns="http://www.w3.org/2000/svg" version="1.1" xmlns:xlink="http://www.w3.org/1999/xlink" width="35" height="35" x="0" y="0" viewBox="0 0 480 478.476" style="enable-background:new 0 0 512 512" xml:space="preserve" class=""><g><g data-name="Layer 2"><g data-name="97.365"><path d="M430 33.476h-32.9V64.2a24 24 0 1 1-44-.02v-30.7h-46.07V64.2a24 24 0 1 1-44 0V33.476h-46.06V64.2a24 24 0 1 1-44 0V33.476H126.9v30.7a24 24 0 1 1-44 .02v-30.72H50a50 50 0 0 0-50 50v345a50.005 50.005 0 0 0 50 50h380a50.005 50.005 0 0 0 50-50v-345a50 50 0 0 0-50-50zm30 390a35 35 0 0 1-35 35H55a35 35 0 0 1-35-35v-255a35 35 0 0 1 35-35h370a35 35 0 0 1 35 35z" fill="#ff9e00" opacity="1" data-original="#000000" class=""></path><rect width="30" height="90" x="360.099" rx="15" fill="#ff9e00" opacity="1" data-original="#000000" class=""></rect><rect width="30" height="90" x="270.033" rx="15" fill="#ff9e00" opacity="1" data-original="#000000" class=""></rect><rect width="30" height="90" x="179.967" rx="15" fill="#ff9e00" opacity="1" data-original="#000000" class=""></rect><rect width="30" height="90" x="89.901" rx="15" fill="#ff9e00" opacity="1" data-original="#000000" class=""></rect><g data-name="365"><path d="M83.448 270.414c2.015-14.048 13.249-33.053 45.242-33.053 28.949 0 43.119 14.2 43.119 31.912 0 14.852-10.6 20.493-15.53 22.212v.336c7.842 2.713 20 9.354 20 27.329 0 20.157-15.968 35.441-47.947 35.441-30.951 0-44.771-16.391-47.5-35.255h27.343c2.048 8.3 8.331 14.112 21.652 14.112 11.3 0 18.6-5.062 18.6-15.2 0-10.024-6.546-14.863-19.866-14.863h-9.448V282.3h6.943c13.32 0 17.9-3.478 17.9-11.386 0-7.177-4.491-12.836-16.179-12.836-11.816 0-16.079 6.385-17.347 12.332zM256.925 267.353c-2.007-5.291-6.418-9.607-16.838-9.607-14.708 0-20.4 12.426-21.221 28.806 5.963-6.378 14.55-11.2 29.7-11.2 22.274 0 39.075 14.263 39.075 36.865 0 27.8-21.8 42.353-47.444 42.353-29.856 0-48.975-19.152-48.975-57.582 0-29.593 12.713-59.629 50.378-59.629 26.963 0 39.594 14.961 41.756 29.992zm3.21 47c0-10.707-5.895-18.442-20.323-18.442-13.025 0-19.563 7.916-19.563 16.972 0 7.4 4.4 20.422 20.121 20.422 11.573-.005 19.765-7.167 19.765-18.957zM391.81 261.211h-53.235c-.94 6.195-2.228 15.009-3.128 20.347 4.633-3.451 11.441-6.291 24.078-6.291 22.636 0 39.645 14.094 39.645 37.752 0 24.913-16.411 41.572-47.671 41.572-27.875 0-44.187-15-46.873-34.651h26.711c2.444 8.446 9.178 13.488 21.048 13.488 12.333 0 19.866-6.632 19.866-18.871 0-10.669-6.084-18.865-20.659-18.865-13.462 0-18.268 5.8-21.256 11.755l-23.763-2.605c3.062-15.74 8.709-50.363 10.348-65.13h77.857z" fill="#ff9e00" opacity="1" data-original="#000000" class=""></path></g></g></g></g></svg>