<svg xmlns="http://www.w3.org/2000/svg" version="1.1" xmlns:xlink="http://www.w3.org/1999/xlink" width="512" height="512" x="0" y="0" viewBox="0 0 176 176" style="enable-background:new 0 0 512 512" xml:space="preserve" class=""><g><g data-name="Layer 2"><g data-name="101.N_100"><path d="M127.86 69.14a5.17 5.17 0 0 0-4.86 2.78c-1 1.85-1.56 4.66-1.64 8.43v14.38q0 6.3 1.58 9.22a5.33 5.33 0 0 0 5 2.91 5.24 5.24 0 0 0 4.91-2.84q1.59-2.83 1.62-8.91V81.2q0-6.08-1.58-9.07a5.31 5.31 0 0 0-5.03-2.99z" fill="#ffffff" opacity="1" data-original="#000000" class=""></path><path d="M88 0A88 88 0 0 0 0 88a88 88 0 0 0 88 88 88 88 0 0 0 88-88A88 88 0 0 0 88 0zM54.4 116.14H41.33V74.55L28.5 78.3v-9.9l24.7-8.54h1.2zm47.25-23q0 11.4-5.12 17.59t-14.44 6.18q-9.39 0-14.53-6.22t-5.14-17.55V82.86q0-11.4 5.12-17.59T82 59.09q9.35 0 14.49 6.22t5.14 17.59zm45.85 0q0 11.4-5.12 17.59t-14.44 6.18q-9.39 0-14.53-6.22t-5.15-17.55V82.86q0-11.4 5.13-17.59t14.47-6.18q9.36 0 14.5 6.22t5.14 17.59z" fill="#ffffff" opacity="1" data-original="#000000" class=""></path><path d="M82 69.14a5.15 5.15 0 0 0-4.89 2.78q-1.53 2.77-1.65 8.43v14.38q0 6.3 1.59 9.22a5.32 5.32 0 0 0 5 2.91A5.23 5.23 0 0 0 87 104q1.59-2.83 1.63-8.91V81.2q0-6.08-1.59-9.07A5.29 5.29 0 0 0 82 69.14z" fill="#ffffff" opacity="1" data-original="#000000" class=""></path></g></g></g></svg>